<?xml version="1.0" encoding="UTF-8"?>
<svg version="1.1" xmlns="http://www.w3.org/2000/svg" width="1536" height="1024">
<path d="M0 0 C506.88 0 1013.76 0 1536 0 C1536 337.92 1536 675.84 1536 1024 C1029.12 1024 522.24 1024 0 1024 C0 686.08 0 348.16 0 0 Z " fill="#FDFDFD" transform="translate(0,0)"/>
<path d="M0 0 C1.26171875 1.43359375 1.26171875 1.43359375 2.6875 3.4375 C5.40721977 7.20530689 8.25366303 10.83362544 11.19140625 14.43359375 C13.78600054 18.11533986 15.86652514 22.0378324 18 26 C18.40919678 26.7525708 18.81839355 27.5051416 19.23999023 28.28051758 C36.81365449 60.74118065 50.29124853 97.815673 40.2578125 134.98046875 C37.06756278 145.62558887 31.85253186 154.32299948 25 163 C23.824375 164.5778125 23.824375 164.5778125 22.625 166.1875 C14.09386797 175.3279986 3.09947837 181.68650024 -7.50390625 188.13671875 C-19.93895216 195.27881848 -19.93895216 195.27881848 -29 206 C-35.66738588 200.71207326 -36.77311733 190.98557556 -38 183 C-38.25759731 179.55619265 -38.28752024 176.13968245 -38.25 172.6875 C-38.23876099 171.30630981 -38.23876099 171.30630981 -38.22729492 169.8972168 C-38.11533234 162.77477043 -37.57986872 155.96312511 -36 149 C-35.85997559 148.37722168 -35.71995117 147.75444336 -35.57568359 147.11279297 C-32.53628271 134.03674121 -27.49482328 121.80947314 -22.39990234 109.42382812 C-10.1179979 80.97465258 -10.1179979 80.97465258 -3 51 C-3.23332031 51.83917969 -3.46664062 52.67835938 -3.70703125 53.54296875 C-8.99959595 70.99160078 -18.5194427 86.54151072 -28 102 C-42.50699995 125.65454731 -54.02167055 153.23822293 -47.5625 181.375 C-46.79743204 184.29482459 -45.95448648 187.13654055 -45 190 C-63.63021398 182.07990903 -79.0458198 160.21260211 -86.81640625 142.25 C-92.83798801 125.71549167 -92.82569499 108.00495669 -85.43554688 91.9074707 C-81.28615851 83.45745648 -76.04895979 76.17951617 -70 69 C-69.29617188 68.15566406 -68.59234375 67.31132812 -67.8671875 66.44140625 C-64.18620679 62.16136397 -60.29780407 58.37836363 -55.98828125 54.73828125 C-53.94701628 52.95367828 -52.07337125 51.0723253 -50.1875 49.125 C-46.27960283 45.14800445 -42.0251641 41.72308866 -37.6796875 38.23828125 C-34.53254786 35.60954799 -31.67646474 32.79223278 -28.8515625 29.82421875 C-27 28 -27 28 -24.546875 26.09375 C-21.84306538 23.87098626 -19.8086458 21.54402805 -17.625 18.8125 C-16.85027344 17.84828125 -16.07554687 16.8840625 -15.27734375 15.890625 C-12.69037135 12.60698936 -10.12856887 9.30564037 -7.60546875 5.97265625 C-2.74455446 0 -2.74455446 0 0 0 Z " fill="#4BA43D" transform="translate(396,379)"/>
<path d="M0 0 C0.75071777 0.20866699 1.50143555 0.41733398 2.27490234 0.63232422 C16.17849464 4.67320642 29.08262955 11.58102459 42 18 C42.18828369 17.11356812 42.18828369 17.11356812 42.38037109 16.20922852 C43.28243989 12.04279296 44.21745588 7.96819453 45.625 3.9375 C45.88539063 3.18339844 46.14578125 2.42929687 46.4140625 1.65234375 C46.60742188 1.10707031 46.80078125 0.56179688 47 0 C50.6269939 0.10990891 52.5911985 1.25749278 55.125 3.6875 C68.87083527 18.32016335 80.64443801 35.60972603 91.81689453 52.24267578 C92.69298315 53.54397291 93.57510231 54.84121451 94.46044922 56.13623047 C96.02901809 58.43604865 97.57873617 60.74763983 99.125 63.0625 C99.62346436 63.78969238 100.12192871 64.51688477 100.63549805 65.26611328 C101.08836182 65.95302246 101.54122559 66.63993164 102.0078125 67.34765625 C102.41660645 67.95617432 102.82540039 68.56469238 103.24658203 69.19165039 C104 71 104 71 103 75 C76.6 75 50.2 75 23 75 C21.95531151 70.82124603 22.02418995 70.13806832 23.50390625 66.375 C23.83197266 65.50359375 24.16003906 64.6321875 24.49804688 63.734375 C25.20819758 61.91013465 25.92174664 60.08721362 26.63867188 58.265625 C26.96544922 57.39421875 27.29222656 56.5228125 27.62890625 55.625 C27.93900635 54.83351563 28.24910645 54.04203125 28.56860352 53.2265625 C29.19030222 50.98599819 29.19030222 50.98599819 28.28808594 48.83374023 C26.16933347 45.81744952 22.93559292 44.59568414 19.6875 43.0625 C18.61423462 42.54200073 18.61423462 42.54200073 17.51928711 42.01098633 C11.14936305 38.9692362 4.65406204 36.35589764 -2 34 C-2.80953125 33.70351563 -3.6190625 33.40703125 -4.453125 33.1015625 C-14.8422614 29.43267167 -24.88476464 28.65282328 -35.82910156 28.68432617 C-38.10010791 28.68746559 -40.36978066 28.66402931 -42.640625 28.63867188 C-56.05740176 28.57887469 -68.92598701 30.2637602 -81.5 35.1875 C-82.29059814 35.48938232 -83.08119629 35.79126465 -83.89575195 36.10229492 C-117.20606499 49.12399361 -146.47453069 71.12421782 -165 102 C-165.33563965 102.55768066 -165.6712793 103.11536133 -166.01708984 103.68994141 C-172.31311177 114.21433094 -176.83166666 124.62130812 -180.1875 136.4375 C-180.44869629 137.35692383 -180.70989258 138.27634766 -180.97900391 139.22363281 C-182.70323923 145.48410396 -183.96689838 151.47898184 -184 158 C-184.02126953 159.31291016 -184.02126953 159.31291016 -184.04296875 160.65234375 C-184.05926976 162.76821485 -184.03468278 164.88435037 -184 167 C-183.78085938 166.1028125 -183.56171875 165.205625 -183.3359375 164.28125 C-173.91866379 127.22466076 -153.3334845 98.08451523 -123 75 C-122.34 75.33 -121.68 75.66 -121 76 C-121.4846875 76.57105469 -121.969375 77.14210938 -122.46875 77.73046875 C-143.34898244 102.98751915 -152.15203616 130.51568519 -150 163 C-148.66722395 175.44766513 -145.01220063 186.59724358 -140 198 C-138.68 201.3 -137.36 204.6 -136 208 C-150.19 208 -164.38 208 -179 208 C-193.83711627 178.32576746 -199.05779279 142.57421125 -191 110 C-190.80664062 109.21254395 -190.61328125 108.42508789 -190.4140625 107.61376953 C-183.02604305 78.60325181 -167.21833384 52.16159893 -144 33 C-143.28585937 32.38640625 -142.57171875 31.7728125 -141.8359375 31.140625 C-102.89458724 -1.41903241 -48.9326478 -13.67820565 0 0 Z " fill="#4FA537" transform="translate(414,334)"/>
<path d="M0 0 C13.86 0 27.72 0 42 0 C45.17318389 6.98100456 47.99232297 13.36913235 50.125 20.625 C50.36347656 21.38683594 50.60195313 22.14867187 50.84765625 22.93359375 C55.10686204 37.1846661 56.58603472 51.3189262 56.5 66.125 C56.49856995 66.92649475 56.49713989 67.7279895 56.4956665 68.55377197 C56.41095706 87.83067446 53.16868804 105.45963424 45 123 C44.71817871 123.63421875 44.43635742 124.2684375 44.14599609 124.921875 C33.80282739 148.13260808 16.31134672 167.30606176 -5 181 C-6.09054687 181.71671875 -7.18109375 182.4334375 -8.3046875 183.171875 C-24.17765229 193.29707556 -41.31915515 199.15496421 -59.4375 203.8125 C-60.22906494 204.0194751 -61.02062988 204.2264502 -61.83618164 204.43969727 C-100.70256679 214.04007841 -142.0814253 204.59903875 -177 187 C-177.37125 188.8871875 -177.37125 188.8871875 -177.75 190.8125 C-178.97833802 196.40232809 -180.94687375 201.66785174 -183 207 C-187.28091992 206.52434223 -189.15470767 204.04603382 -192 201 C-192.77859375 200.24460937 -193.5571875 199.48921875 -194.359375 198.7109375 C-200.3963979 192.81201643 -205.75865602 186.60716652 -211 180 C-211.92306016 178.86603094 -212.8476087 177.73327224 -213.7734375 176.6015625 C-238.30064067 146.49629353 -238.30064067 146.49629353 -242 137 C-241.505 135.02 -241.505 135.02 -241 133 C-213.61 133 -186.22 133 -158 133 C-160.25 143.125 -160.25 143.125 -161.5078125 146.37890625 C-161.77207031 147.07177734 -162.03632813 147.76464844 -162.30859375 148.47851562 C-162.57800781 149.16623047 -162.84742188 149.85394531 -163.125 150.5625 C-163.40214844 151.28501953 -163.67929687 152.00753906 -163.96484375 152.75195312 C-164.63761185 154.50347008 -165.31798311 156.25206364 -166 158 C-165.12730469 158.27070312 -164.25460937 158.54140625 -163.35546875 158.8203125 C-160.15065695 159.9470333 -157.31432008 161.29423254 -154.3125 162.875 C-121.89149564 179.20440562 -84.92451999 177.63000976 -51 167 C-46.84724821 165.59030362 -42.94350807 163.91638121 -39 162 C-38.31502441 161.6690332 -37.63004883 161.33806641 -36.92431641 160.99707031 C-0.94033982 143.40969945 27.96759982 115.62431207 41.5625 77.35546875 C45.18808231 66.60101328 47.7825861 56.47792943 47 45 C46.79246094 45.8971875 46.58492187 46.794375 46.37109375 47.71875 C41.47345106 67.5552275 32.4285492 86.51098558 19 102 C18.0822903 103.1204792 17.16709552 104.2430211 16.25390625 105.3671875 C9.79918279 113.22613004 3.07692765 119.80617627 -5 126 C-5.8353125 126.64195312 -6.670625 127.28390625 -7.53125 127.9453125 C-9.34149109 129.31574149 -11.16058927 130.66913224 -13 132 C-13.66 131.67 -14.32 131.34 -15 131 C-14.443125 130.29617188 -13.88625 129.59234375 -13.3125 128.8671875 C-7.43583787 121.26326319 -2.52416166 113.486436 2 105 C2.33217529 104.41283203 2.66435059 103.82566406 3.0065918 103.22070312 C6.14928099 97.41605061 7.66425386 91.3936773 9.1875 85 C9.44724609 83.9584375 9.70699219 82.916875 9.97460938 81.84375 C12.03643173 73.40466315 13.18202545 65.37937901 13.125 56.6875 C13.12234131 55.95273437 13.11968262 55.21796875 13.11694336 54.4609375 C13.7946846 44.56449842 13.7946846 44.56449842 11 36 C10.55565647 33.92239375 10.14542374 31.83746951 9.75 29.75 C8.4774822 23.61821077 6.6732558 18.03414948 4.28125 12.23046875 C2.68879808 8.2153537 1.36590819 4.09772458 0 0 Z " fill="#0E683F" transform="translate(484,424)"/>
<path d="M0 0 C27.06 0 54.12 0 82 0 C82 7.26 82 14.52 82 22 C64.18 22 46.36 22 28 22 C28 33.22 28 44.44 28 56 C43.18 56 58.36 56 74 56 C74 63.26 74 70.52 74 78 C58.82 78 43.64 78 28 78 C28 89.88 28 101.76 28 114 C46.48 114 64.96 114 84 114 C84 121.26 84 128.52 84 136 C56.28 136 28.56 136 0 136 C0 91.12 0 46.24 0 0 Z " fill="#163C5D" transform="translate(595,409)"/>
<path d="M0 0 C1.54300781 -0.0299707 1.54300781 -0.0299707 3.1171875 -0.06054688 C9.98267771 -0.05617951 15.00764419 1.09200245 21 4.4375 C21.85851562 4.90671875 22.71703125 5.3759375 23.6015625 5.859375 C34.53098648 13.03312819 40.57806554 22.4487178 43.60083008 35.18847656 C46.30765019 50.43937985 44.26344137 65.14373167 36.1875 78.375 C29.87646813 86.95927508 21.53512441 93.05472354 11 95.4375 C-2.01568128 97.10611137 -16.22270716 96.40622237 -27.3125 88.75 C-28.57393011 87.68284078 -29.80273292 86.57617742 -31 85.4375 C-31.68835938 84.78910156 -32.37671875 84.14070312 -33.0859375 83.47265625 C-43.6569948 72.60686687 -46.39830939 58.59004026 -46.37084961 43.90551758 C-46.08282743 33.01490471 -42.64321469 24.01613944 -36 15.4375 C-35.2575 14.385625 -34.515 13.33375 -33.75 12.25 C-24.39681826 2.68424595 -12.95005004 -0.08925473 0 0 Z " fill="#173C5D" transform="translate(809,451.5625)"/>
<path d="M0 0 C-1.43993546 7.72329019 -4.05532446 14.7282249 -7 22 C-10.70246019 21.35492527 -14.04983217 20.32885348 -17.5625 19 C-27.9918944 15.06547118 -38.57834182 14.35121646 -49 19 C-52.31366812 20.73022394 -52.31366812 20.73022394 -54 24 C-54.68473015 28.11408696 -54.92212965 31.92093238 -54 36 C-50.61756829 40.27722134 -46.53481082 42.57581699 -41.6875 44.875 C-40.99253418 45.21523193 -40.29756836 45.55546387 -39.58154297 45.90600586 C-35.328236 47.96475181 -31.02284496 49.86486836 -26.66894531 51.69946289 C-14.48608505 56.84356359 -3.06528982 63.26382727 2.4375 75.9375 C5.61055444 85.81380366 5.55906455 97.91697734 1.46875 107.5 C-3.54648292 116.03656668 -11.01222566 122.71909594 -19.8125 127.125 C-20.78832031 127.62257813 -21.76414062 128.12015625 -22.76953125 128.6328125 C-40.17238499 135.99798639 -62.91911699 133.53801478 -80.1484375 126.76171875 C-84.97902249 124.57645411 -84.97902249 124.57645411 -87 123 C-88.15984718 119.89764454 -87.99992065 118.21060531 -86.671875 115.21484375 C-86.36636719 114.51939453 -86.06085937 113.82394531 -85.74609375 113.10742188 C-85.41738281 112.39134766 -85.08867188 111.67527344 -84.75 110.9375 C-84.43675781 110.21755859 -84.12351562 109.49761719 -83.80078125 108.75585938 C-82.22249606 105.22927607 -80.87815263 102.64507711 -78 100 C-77.41734375 100.25394531 -76.8346875 100.50789062 -76.234375 100.76953125 C-66.47702323 104.86577798 -57.34474771 107.25932746 -46.75 107.4375 C-46.00556641 107.45973633 -45.26113281 107.48197266 -44.49414062 107.50488281 C-38.23828744 107.4798594 -33.09572506 105.69128356 -28.33496094 101.55249023 C-25.80468616 98.60991209 -25.75889826 95.41090156 -25.625 91.6875 C-25.57601562 90.76324219 -25.52703125 89.83898437 -25.4765625 88.88671875 C-26.18870117 84.95932715 -28.08628954 82.58762565 -31 80 C-34.20535519 78.04532565 -34.20535519 78.04532565 -37.8125 76.5625 C-38.45977051 76.2744751 -39.10704102 75.9864502 -39.77392578 75.68969727 C-42.54133384 74.46471907 -45.32718221 73.28504223 -48.11376953 72.10449219 C-62.52461186 65.99848583 -74.97168521 60.11167238 -82.0546875 45.4296875 C-85.25952993 37.19244786 -84.95391007 27.28225503 -82 19 C-75.89864462 6.32945368 -66.22986781 -1.49555717 -53.1796875 -6.45703125 C-35.64539867 -10.82489173 -15.70729374 -8.97559642 0 0 Z " fill="#173C5D" transform="translate(948,415)"/>
<path d="M0 0 C8.17435886 7.44697947 10.63147597 16.67796182 11.17388916 27.45492554 C11.23002506 31.32904399 11.22570039 35.20008569 11.1953125 39.07421875 C11.19157258 40.4933909 11.18873025 41.91256566 11.18673706 43.33174133 C11.17917749 47.02899571 11.15959711 50.72608767 11.1373291 54.42327881 C11.11670317 58.2112 11.1076999 61.99914797 11.09765625 65.78710938 C11.07634218 73.19148813 11.04122485 80.59570042 11 88 C2.09 88 -6.82 88 -16 88 C-16.0093457 86.0926709 -16.01869141 84.1853418 -16.02832031 82.22021484 C-16.06389693 75.90566733 -16.11772599 69.59147982 -16.18390274 63.27718163 C-16.22334698 59.450233 -16.25555011 55.62351341 -16.27099609 51.79638672 C-16.2861833 48.10025822 -16.32066404 44.40475949 -16.36830902 40.7089119 C-16.38310181 39.30163687 -16.39103981 37.89427192 -16.39188385 36.4869194 C-16.39426121 34.5098897 -16.42366946 32.53294925 -16.45410156 30.55615234 C-16.46298401 29.43252289 -16.47186646 28.30889343 -16.48101807 27.1512146 C-17.12347725 23.25025656 -18.52293317 21.05148712 -21 18 C-25.95014594 16.34995135 -30.41884435 16.10457084 -35.40623474 17.83474731 C-38.13695645 19.32010226 -39.97337287 20.6250154 -42 23 C-43.32147174 27.90239645 -43.190071 32.76556177 -43.09765625 37.8046875 C-43.10331378 39.25344862 -43.11293057 40.7021992 -43.12632751 42.15090942 C-43.15088246 45.94926552 -43.12191371 49.74537116 -43.08154297 53.54351807 C-43.04984062 57.42492258 -43.06909879 61.30604403 -43.08398438 65.1875 C-43.1056811 72.79246057 -43.06608743 80.39520281 -43 88 C-51.91 88 -60.82 88 -70 88 C-70 57.97 -70 27.94 -70 -3 C-62.08 -3 -54.16 -3 -46 -3 C-45.01 0.3 -44.02 3.6 -43 7 C-41.4840625 5.39125 -41.4840625 5.39125 -39.9375 3.75 C-29.35416255 -6.7906627 -12.39871837 -8.93965564 0 0 Z " fill="#173B5C" transform="translate(1116,457)"/>
<path d="M0 0 C9.57 0 19.14 0 29 0 C30.92396411 5.58155364 32.84559648 11.16381006 34.76171875 16.74804688 C35.41211571 18.64139613 36.06377459 20.53431244 36.71679688 22.42675781 C40.43752633 33.21230792 44.04223868 43.97709896 47 55 C47.35191406 53.82308594 47.70382812 52.64617187 48.06640625 51.43359375 C50.90447818 41.95127793 53.75507083 32.47272393 56.625 23 C56.90158447 22.08275146 57.17816895 21.16550293 57.46313477 20.22045898 C59.52402971 13.43223777 61.75438374 6.73684878 64 0 C72.91 0 81.82 0 91 0 C89.05315025 6.48949918 87.0670957 12.68392145 84.5625 18.9375 C83.93660683 20.52308522 83.31160126 22.10902111 82.6875 23.6953125 C82.39230469 24.44458008 82.09710937 25.19384766 81.79296875 25.96582031 C80.84359437 28.40122281 79.94313029 30.85145286 79.0625 33.3125 C76.8080967 39.60928162 74.39127001 45.84354394 71.99902344 52.08886719 C69.6673229 58.19570192 67.42703987 64.32215821 65.30078125 70.50390625 C64.16590607 73.55409629 62.94906042 76.53991385 61.6875 79.5390625 C59.84557015 83.92310669 58.08419802 88.32755608 56.38671875 92.76953125 C51.58572761 105.3177162 46.7115018 117.34984592 40 129 C30.1 129 20.2 129 10 129 C17 117 17 117 19.1875 113.328125 C22.7666763 107.24969629 26.08810472 101.08576815 29.0625 94.6875 C29.37380859 94.05424805 29.68511719 93.42099609 30.00585938 92.76855469 C33.42471304 85.12571129 31.50847107 78.98749972 28.62890625 71.40234375 C27.61822065 68.90847245 26.59652721 66.42154237 25.5625 63.9375 C25.01915585 62.60854029 24.47676897 61.27918884 23.93530273 59.94946289 C22.30614144 55.95964135 20.65551768 51.9789441 19 48 C18.51660156 46.83597656 18.03320312 45.67195313 17.53515625 44.47265625 C15.79952507 40.29829117 14.06064981 36.12533584 12.31225586 31.95629883 C9.77912521 25.91032499 7.33817648 19.8457461 5.02734375 13.7109375 C3.64348579 10.05923626 2.17458827 6.44365505 0.69921875 2.828125 C0 1 0 1 0 0 Z " fill="#183C5D" transform="translate(949,454)"/>
<path d="M0 0 C2.41451068 1.28316062 4.4899935 2.66598282 6.609375 4.38671875 C6.0347129 9.17314482 4.62691857 12.92460662 2.546875 17.26171875 C1.99902344 18.41414063 1.45117188 19.5665625 0.88671875 20.75390625 C0.46519531 21.62273437 0.04367187 22.4915625 -0.390625 23.38671875 C-3.28567283 22.2445901 -6.11966563 21.0541739 -8.953125 19.76171875 C-14.96865124 17.55564675 -21.72007672 17.04601524 -27.796875 19.265625 C-33.2021741 22.32123251 -36.1788848 26.35095632 -37.97558594 32.33496094 C-38.73165733 36.07262211 -38.61719764 39.83562973 -38.640625 43.63671875 C-38.66125 44.45785156 -38.681875 45.27898437 -38.703125 46.125 C-38.74774496 53.16379918 -37.64849315 58.79017038 -32.890625 64.26171875 C-27.55234249 68.79925888 -22.72758362 69.79051155 -15.74609375 69.75 C-10.65970872 68.96553266 -6.04580852 66.49017204 -1.390625 64.38671875 C-0.400625 64.05671875 0.589375 63.72671875 1.609375 63.38671875 C2.64416713 65.79823432 3.6623122 68.21466344 4.671875 70.63671875 C4.96642578 71.31863281 5.26097656 72.00054688 5.56445312 72.703125 C7.08087488 76.37821773 7.95913133 78.6103839 6.609375 82.38671875 C-2.36530122 91.05887779 -16.11697101 91.96179015 -27.84667969 91.86352539 C-34.33729759 91.65515979 -39.75708195 90.80708418 -45.390625 87.38671875 C-46.4425 86.78859375 -47.494375 86.19046875 -48.578125 85.57421875 C-58.69361896 77.70661234 -64.61741454 67.93980089 -67.390625 55.38671875 C-67.77884022 51.74886297 -67.82175997 48.16754894 -67.765625 44.51171875 C-67.75474854 43.54645264 -67.74387207 42.58118652 -67.73266602 41.58666992 C-67.41927554 27.54322886 -63.68276477 17.14320588 -54.203125 6.57421875 C-40.21742743 -6.64688487 -16.98449837 -7.03462433 0 0 Z " fill="#173B5C" transform="translate(752.390625,455.61328125)"/>
<path d="M0 0 C1.06130127 0.00281982 2.12260254 0.00563965 3.21606445 0.00854492 C13.77698421 0.22595423 21.31953039 2.97458985 30.3125 8.5 C29.64642561 12.90958108 28.04625271 16.76572186 26.25 20.8125 C25.96833984 21.45767578 25.68667969 22.10285156 25.39648438 22.76757812 C24.7062257 24.34698358 24.00996802 25.92376493 23.3125 27.5 C17.6128876 25.60562016 17.6128876 25.60562016 14.890625 24.6484375 C7.74828199 22.27564569 0.90756292 20.70246854 -6.0625 24.1875 C-12.03314182 29.44735113 -15.33587664 34.86398127 -15.94140625 42.84765625 C-16.10253008 52.89104188 -15.30710534 61.52116903 -8.6875 69.5 C-4.96527096 72.95982647 -1.32202579 73.76258639 3.6875 73.9375 C11.1165644 73.65176675 17.07217957 71.471113 23.3125 67.5 C23.9725 67.5 24.6325 67.5 25.3125 67.5 C26.34729213 69.91151557 27.3654372 72.32794469 28.375 74.75 C28.66955078 75.43191406 28.96410156 76.11382813 29.26757812 76.81640625 C30.78456246 80.4928624 31.65835766 82.72204922 30.3125 86.5 C22.41139664 94.33279411 9.2795428 95.89318948 -1.3125 96 C-13.29170582 95.85517163 -22.93502861 92.99094336 -31.6875 84.5 C-41.16464087 74.48192643 -43.86607952 62.13078043 -43.875 48.8125 C-43.88724609 47.86955078 -43.89949219 46.92660156 -43.91210938 45.95507812 C-43.93964489 32.60035174 -40.65158043 21.1083679 -31.4453125 11.05859375 C-22.22636796 2.88446293 -12.03986509 -0.07091729 0 0 Z " fill="#173C5D" transform="translate(1181.6875,451.5)"/>
<path d="M0 0 C13.86 0 27.72 0 42 0 C45.25520203 7.16144446 48.05253171 13.67308329 50.1875 21.125 C50.5577832 22.36830078 50.5577832 22.36830078 50.93554688 23.63671875 C53.34065368 31.83332275 55.31203003 39.4191742 55 48 C53.68 46.68 52.36 45.36 51 44 C50.81824219 45.49853516 50.81824219 45.49853516 50.6328125 47.02734375 C50.46523438 48.31769531 50.29765625 49.60804688 50.125 50.9375 C49.96257812 52.22527344 49.80015625 53.51304687 49.6328125 54.83984375 C49.31957031 56.40412109 49.31957031 56.40412109 49 58 C48.01 58.495 48.01 58.495 47 59 C47 54.38 47 49.76 47 45 C46.484375 47.145 45.96875 49.29 45.4375 51.5 C40.6815539 69.86199955 31.40882234 87.68717846 19 102 C18.0822903 103.1204792 17.16709552 104.2430211 16.25390625 105.3671875 C9.79918279 113.22613004 3.07692765 119.80617627 -5 126 C-5.8353125 126.64195312 -6.670625 127.28390625 -7.53125 127.9453125 C-9.34149109 129.31574149 -11.16058927 130.66913224 -13 132 C-13.66 131.67 -14.32 131.34 -15 131 C-14.443125 130.29617188 -13.88625 129.59234375 -13.3125 128.8671875 C-7.43583787 121.26326319 -2.52416166 113.486436 2 105 C2.33217529 104.41283203 2.66435059 103.82566406 3.0065918 103.22070312 C6.14928099 97.41605061 7.66425386 91.3936773 9.1875 85 C9.44724609 83.9584375 9.70699219 82.916875 9.97460938 81.84375 C12.03643173 73.40466315 13.18202545 65.37937901 13.125 56.6875 C13.12234131 55.95273437 13.11968262 55.21796875 13.11694336 54.4609375 C13.7946846 44.56449842 13.7946846 44.56449842 11 36 C10.55565647 33.92239375 10.14542374 31.83746951 9.75 29.75 C8.4774822 23.61821077 6.6732558 18.03414948 4.28125 12.23046875 C2.68879808 8.2153537 1.36590819 4.09772458 0 0 Z " fill="#188530" transform="translate(484,424)"/>
<path d="M0 0 C0.99 0.495 0.99 0.495 2 1 C1.5153125 1.57105469 1.030625 2.14210938 0.53125 2.73046875 C-20.34898244 27.98751915 -29.15203616 55.51568519 -27 88 C-25.66722395 100.44766513 -22.01220063 111.59724358 -17 123 C-15.68 126.3 -14.36 129.6 -13 133 C-27.19 133 -41.38 133 -56 133 C-64.33333333 116.33333333 -64.33333333 116.33333333 -64 108 C-63.34 108 -62.68 108 -62 108 C-61.97421875 107.01902344 -61.9484375 106.03804687 -61.921875 105.02734375 C-60.60115834 69.69044305 -41.32117955 37.55435386 -16.546875 13.27734375 C-11.27041401 8.55928124 -5.62993331 4.2845154 0 0 Z " fill="#3D993A" transform="translate(291,409)"/>
<path d="M0 0 C4.90730469 2.31981676 7.4420566 5.24953368 10 10 C13.59176478 22.20941625 13.78229211 36.41860679 8 48 C5.0994061 51.54004301 2.3298896 53.55670347 -2 55 C-7.61875724 55.3684431 -11.15711379 55.19190228 -16 52 C-20.4166175 47.83576064 -21.5438852 42.7038892 -23 37 C-23.18820312 36.35417969 -23.37640625 35.70835937 -23.5703125 35.04296875 C-25.42979406 26.20197917 -24.46620616 15.59224596 -20.1875 7.625 C-14.16915263 0.40298315 -9.12411844 -0.91628346 0 0 Z " fill="#F9FAFB" transform="translate(814,472)"/>
<path d="M0 0 C0.66 0.33 1.32 0.66 2 1 C1.46632813 1.35191406 0.93265625 1.70382812 0.3828125 2.06640625 C-23.13022857 17.64684696 -43.89577558 34.51590527 -57 60 C-57.66 60 -58.32 60 -59 60 C-55.37605781 50.20128253 -48.67809294 41.90860527 -42 34 C-41.33871094 33.21496094 -40.67742187 32.42992187 -39.99609375 31.62109375 C-35.6692883 26.61690192 -31.09816174 22.20740485 -26 18 C-25.28585937 17.38640625 -24.57171875 16.7728125 -23.8359375 16.140625 C-18.6541206 11.80800217 -13.19472747 8.05258513 -7.5 4.4375 C-6.79294922 3.98334717 -6.08589844 3.52919434 -5.35742188 3.0612793 C-3.61098884 1.97484041 -1.80910709 0.97852405 0 0 Z " fill="#86C83D" transform="translate(296,349)"/>
<path d="M0 0 C4.01984912 6.02977369 4.25729264 12.92445235 4 20 C2.68 18.68 1.36 17.36 0 16 C-0.12117187 16.99902344 -0.24234375 17.99804688 -0.3671875 19.02734375 C-0.53476562 20.31769531 -0.70234375 21.60804688 -0.875 22.9375 C-1.03742187 24.22527344 -1.19984375 25.51304687 -1.3671875 26.83984375 C-1.57601562 27.88269531 -1.78484375 28.92554688 -2 30 C-2.66 30.33 -3.32 30.66 -4 31 C-4.02716089 27.97910522 -4.04691657 24.95845871 -4.0625 21.9375 C-4.07087891 21.08994141 -4.07925781 20.24238281 -4.08789062 19.36914062 C-4.10683006 14.4638278 -3.83326345 9.83555245 -3 5 C-2.01 4.67 -1.02 4.34 0 4 C0 2.68 0 1.36 0 0 Z " fill="#3B9A48" transform="translate(535,452)"/>
<path d="M0 0 C0.33 0 0.66 0 1 0 C1.22384382 1.72722728 1.42839969 3.45696007 1.625 5.1875 C1.74101562 6.15042969 1.85703125 7.11335938 1.9765625 8.10546875 C2.00194942 11.24075323 1.34359283 13.19486535 0 16 C-0.33 15.01 -0.66 14.02 -1 13 C-1.28617187 13.71542969 -1.57234375 14.43085938 -1.8671875 15.16796875 C-3.578125 19.4453125 -5.2890625 23.72265625 -7 28 C-8.30817754 24.07546738 -7.09358141 21.65850607 -5.75 17.9375 C-5.28135826 16.59156092 -4.81391357 15.24520445 -4.34765625 13.8984375 C-4.1170752 13.23811523 -3.88649414 12.57779297 -3.64892578 11.89746094 C-2.30605358 7.97089858 -1.15344958 3.98549652 0 0 Z " fill="#A1D23E" transform="translate(394,419)"/>
<path d="M0 0 C0.33 0 0.66 0 1 0 C0.54034292 7.30696249 -0.88329723 13.99757448 -3 21 C-4.32 21.33 -5.64 21.66 -7 22 C-6.5875 20.783125 -6.175 19.56625 -5.75 18.3125 C-3.72341064 12.24242851 -1.86391367 6.12158449 0 0 Z " fill="#E2F6D4" transform="translate(393,427)"/>
<path d="M0 0 C0.66 0.66 1.32 1.32 2 2 C1.9765625 4.06640625 1.9765625 4.06640625 1.625 6.5625 C0.83080721 13.10513581 0.33612993 19.55250349 2 26 C1.01 26 0.02 26 -1 26 C-1.0291544 22.60418484 -1.04685068 19.20840214 -1.0625 15.8125 C-1.07087891 14.85279297 -1.07925781 13.89308594 -1.08789062 12.90429688 C-1.09111328 11.97294922 -1.09433594 11.04160156 -1.09765625 10.08203125 C-1.10289307 9.22843018 -1.10812988 8.3748291 -1.11352539 7.49536133 C-0.99579323 4.90753253 -0.57107044 2.52338047 0 0 Z " fill="#1F6C62" transform="translate(359,536)"/>
<path d="M0 0 C0.33 0 0.66 0 1 0 C1.054138 2.24973447 1.09285491 4.49984383 1.125 6.75 C1.14820313 8.00296875 1.17140625 9.2559375 1.1953125 10.546875 C1.01537302 13.72820492 0.68998582 15.36521896 -1 18 C-1.33 17.01 -1.66 16.02 -2 15 C-2.99 15.495 -2.99 15.495 -4 16 C-2.68 10.72 -1.36 5.44 0 0 Z " fill="#CEECD2" transform="translate(531,467)"/>
<path d="M0 0 C0.33 0.66 0.66 1.32 1 2 C0.40832031 2.83402344 -0.18335938 3.66804688 -0.79296875 4.52734375 C-5.23699881 10.83957676 -9.4622037 17.11996399 -13 24 C-13.66 24 -14.32 24 -15 24 C-11.7389476 15.1280192 -5.78519839 7.39572981 0 0 Z " fill="#90CB47" transform="translate(252,385)"/>
<path d="M0 0 C0.99 0.66 1.98 1.32 3 2 C2.49202991 6.3177458 1.80317221 10.03302114 0 14 C-2.12046792 10.46588679 -2.53199289 7.05606165 -3 3 C-2.01 2.67 -1.02 2.34 0 2 C0 1.34 0 0.68 0 0 Z " fill="#5DAC45" transform="translate(227,508)"/>
<path d="M0 0 C2.34914492 2.34914492 2.73140357 3.95679446 3.625 7.125 C3.88539063 8.03507813 4.14578125 8.94515625 4.4140625 9.8828125 C4.70410156 10.93082031 4.70410156 10.93082031 5 12 C1.07699728 10.17495091 -1.73787272 7.81729174 -5 5 C-2 5 -2 5 0 6 C0 4.02 0 2.04 0 0 Z " fill="#2CAE52" transform="translate(346,557)"/>
<path d="M0 0 C0.66 0.66 1.32 1.32 2 2 C1.360625 2.763125 0.72125 3.52625 0.0625 4.3125 C-2.14232781 6.88246713 -2.14232781 6.88246713 -3 10 C-5.0625 11.6875 -5.0625 11.6875 -7 13 C-7.66 12.67 -8.32 12.34 -9 12 C-6.03 8.04 -3.06 4.08 0 0 Z " fill="#2D934E" transform="translate(478,543)"/>
<path d="M0 0 C0.33 0.66 0.66 1.32 1 2 C1.66 2 2.32 2 3 2 C2.34 5.96 1.68 9.92 1 14 C0.67 14 0.34 14 0 14 C0 9.38 0 4.76 0 0 Z " fill="#E8F8EA" transform="translate(229,492)"/>
<path d="M0 0 C0 3 0 3 -1.53125 4.82421875 C-2.1809375 5.43910156 -2.830625 6.05398438 -3.5 6.6875 C-4.1496875 7.31011719 -4.799375 7.93273437 -5.46875 8.57421875 C-5.9740625 9.04472656 -6.479375 9.51523437 -7 10 C-7.66 9.67 -8.32 9.34 -9 9 C-8.06725891 7.87105124 -7.12859878 6.74699124 -6.1875 5.625 C-5.66542969 4.99851562 -5.14335938 4.37203125 -4.60546875 3.7265625 C-3 2 -3 2 0 0 Z " fill="#264A68" transform="translate(781,459)"/>
<path d="M0 0 C0.66 0.33 1.32 0.66 2 1 C-0.97 4.96 -0.97 4.96 -4 9 C-4.33 8.34 -4.66 7.68 -5 7 C-5.99 6.67 -6.98 6.34 -8 6 C-5.36 4.02 -2.72 2.04 0 0 Z " fill="#61B45B" transform="translate(291,409)"/>
<path d="M0 0 C0.99 0.33 1.98 0.66 3 1 C0.03 5.95 0.03 5.95 -3 11 C-4 8 -4 8 -3.22265625 5.95703125 C-2.83980469 5.24933594 -2.45695312 4.54164063 -2.0625 3.8125 C-1.68222656 3.09707031 -1.30195313 2.38164062 -0.91015625 1.64453125 C-0.60980469 1.10183594 -0.30945313 0.55914062 0 0 Z " fill="#6AC748" transform="translate(370,472)"/>
<path d="M0 0 C0.33 0.66 0.66 1.32 1 2 C-1.31 4.64 -3.62 7.28 -6 10 C-6 6.41087588 -5.33563446 5.89142971 -3 3.3125 C-2.443125 2.68988281 -1.88625 2.06726563 -1.3125 1.42578125 C-0.879375 0.95527344 -0.44625 0.48476563 0 0 Z " fill="#8ED145" transform="translate(327,447)"/>
<path d="M0 0 C0 3 0 3 -2 5.1875 C-2.66 5.785625 -3.32 6.38375 -4 7 C-4.66 6.67 -5.32 6.34 -6 6 C-4 4 -2 2 0 0 Z " fill="#96D23B" transform="translate(337,437)"/>
<path d="M0 0 C0.66 1.32 1.32 2.64 2 4 C0.68 5.32 -0.64 6.64 -2 8 C-2.66 7.67 -3.32 7.34 -4 7 C-3.525625 6.401875 -3.05125 5.80375 -2.5625 5.1875 C-0.83534256 2.99617076 -0.83534256 2.99617076 0 0 Z " fill="#2E516F" transform="translate(823,515)"/>
</svg>
